<svg xmlns="http://www.w3.org/2000/svg" version="1.1" xmlns:xlink="http://www.w3.org/1999/xlink" xmlns:svgjs="http://svgjs.dev/svgjs" width="1500" height="1500" viewBox="0 0 1500 1500"><rect width="1500" height="1500" fill="#ffffff"></rect><g transform="matrix(0.6666666666666666,0,0,0.6666666666666666,249.39393939393938,562.7399981115273)"><svg viewBox="0 0 396 148" data-background-color="#ffffff" preserveAspectRatio="xMidYMid meet" height="560" width="1500" xmlns="http://www.w3.org/2000/svg" xmlns:xlink="http://www.w3.org/1999/xlink"><g id="tight-bounds" transform="matrix(1,0,0,1,0.2400000000000091,0.23521503435885904)"><svg viewBox="0 0 395.52 147.52956993128228" height="147.52956993128228" width="395.52"><g><svg viewBox="0 0 657.2194335199026 245.1438622008298" height="147.52956993128228" width="395.52"><g transform="matrix(1,0,0,1,259.72183351990276,74.98046207795896)"><svg viewBox="0 0 397.4975999999999 95.18293804491188" height="95.18293804491188" width="397.4975999999999"><g id="textblocktransform"><svg viewBox="0 0 397.4975999999999 95.18293804491188" height="95.18293804491188" width="397.4975999999999" id="textblock"><g><rect width="397.4975999999999" height="5.374096987002867" x="0" y="65.92306330159902" fill="#7e68e3" opacity="1" stroke-width="0" stroke="transparent" fill-opacity="1" class="rect-qz-0" data-fill-palette-color="primary" rx="1%" id="qz-0" data-palette-color="#7e68e3"></rect></g><g transform="matrix(1,0,0,1,0.9887999999999693,0)"><svg viewBox="0 0 395.52 59.59232077764276" height="59.59232077764276" width="395.52"><g transform="matrix(1,0,0,1,0,0)"><svg width="395.52" viewBox="3.8 -36.85 246.88 37.2" height="59.59232077764276" data-palette-color="#7e68e3"><path d="M5.45 0L5.45 0Q4.8 0 4.3-0.33 3.8-0.65 3.8-1.3L3.8-1.3 3.8-35.35Q3.8-35.85 4.17-36.18 4.55-36.5 5.2-36.55L5.2-36.55 14.4-36.55Q17.3-36.55 19.65-35.5 22-34.45 23.35-32.13 24.7-29.8 24.7-25.95L24.7-25.95 24.7-25.45Q24.7-21.55 23.33-19.23 21.95-16.9 19.58-15.85 17.2-14.8 14.3-14.8L14.3-14.8 7.1-14.8 7.1-1.3Q7.1-0.65 6.58-0.33 6.05 0 5.45 0ZM7.1-33.5L7.1-17.65 14.3-17.65Q17.65-17.65 19.53-19.53 21.4-21.4 21.4-25.3L21.4-25.3 21.4-25.9Q21.4-29.8 19.53-31.65 17.65-33.5 14.3-33.5L14.3-33.5 7.1-33.5ZM27.2 0L27.2 0Q26.8 0 26.35-0.18 25.9-0.35 25.6-0.68 25.3-1 25.3-1.4L25.3-1.4Q25.3-1.6 25.35-1.75L25.35-1.75 35.8-35.7Q36-36.3 36.55-36.58 37.1-36.85 37.75-36.85L37.75-36.85Q38.45-36.85 39.02-36.55 39.6-36.25 39.75-35.7L39.75-35.7 50.15-1.75Q50.2-1.6 50.2-1.45L50.2-1.45Q50.2-1.05 49.9-0.73 49.6-0.4 49.15-0.2 48.7 0 48.2 0L48.2 0Q47.8 0 47.45-0.2 47.1-0.4 47-0.85L47-0.85 44.65-8.55 30.85-8.55 28.55-0.85Q28.4-0.4 28.05-0.2 27.7 0 27.2 0ZM37.75-31.55L31.65-11.4 43.8-11.4 37.75-31.55ZM63.25 0.35L63.25 0.35Q60.05 0.35 57.75-0.63 55.45-1.6 54.22-2.88 53-4.15 53-5.05L53-5.05Q53-5.45 53.22-5.9 53.45-6.35 53.8-6.63 54.15-6.9 54.5-6.9L54.5-6.9Q55-6.9 55.52-6.28 56.05-5.65 56.92-4.83 57.8-4 59.25-3.38 60.7-2.75 63.05-2.75L63.05-2.75Q65.4-2.75 67.07-3.53 68.75-4.3 69.62-5.83 70.5-7.35 70.5-9.65L70.5-9.65Q70.5-12.05 69.6-13.53 68.7-15 67.22-15.93 65.75-16.85 64-17.53 62.25-18.2 60.47-18.88 58.7-19.55 57.22-20.58 55.75-21.6 54.82-23.28 53.9-24.95 53.9-27.55L53.9-27.55Q53.9-30.3 54.9-32.05 55.9-33.8 57.47-34.8 59.05-35.8 60.9-36.23 62.75-36.65 64.5-36.65L64.5-36.65Q65.9-36.65 67.37-36.43 68.85-36.2 70.1-35.8 71.35-35.4 72.12-34.85 72.9-34.3 72.9-33.6L72.9-33.6Q72.9-33.25 72.72-32.83 72.55-32.4 72.25-32.08 71.95-31.75 71.45-31.75L71.45-31.75Q71-31.75 70.2-32.23 69.4-32.7 68.02-33.18 66.65-33.65 64.45-33.65L64.45-33.65Q62.65-33.65 60.97-33.13 59.3-32.6 58.25-31.35 57.2-30.1 57.2-27.85L57.2-27.85Q57.2-25.85 58.12-24.63 59.05-23.4 60.52-22.65 62-21.9 63.75-21.28 65.5-20.65 67.27-19.88 69.05-19.1 70.52-17.93 72-16.75 72.9-14.85 73.8-12.95 73.8-9.95L73.8-9.95Q73.8-6.4 72.45-4.13 71.1-1.85 68.72-0.75 66.35 0.35 63.25 0.35ZM87.64 0L87.64 0Q86.99 0 86.49-0.33 85.99-0.65 85.99-1.3L85.99-1.3 85.99-33.45 77.59-33.45Q76.99-33.45 76.67-33.93 76.34-34.4 76.34-35L76.34-35Q76.34-35.6 76.67-36.08 76.99-36.55 77.59-36.55L77.59-36.55 97.64-36.55Q98.29-36.55 98.59-36.1 98.89-35.65 98.89-35.05L98.89-35.05Q98.89-34.45 98.59-33.95 98.29-33.45 97.64-33.45L97.64-33.45 89.29-33.45 89.29-1.3Q89.29-0.65 88.77-0.33 88.24 0 87.64 0ZM99.59 0L99.59 0Q99.19 0 98.74-0.18 98.29-0.35 97.99-0.68 97.69-1 97.69-1.4L97.69-1.4Q97.69-1.6 97.74-1.75L97.74-1.75 108.19-35.7Q108.39-36.3 108.94-36.58 109.49-36.85 110.14-36.85L110.14-36.85Q110.84-36.85 111.42-36.55 111.99-36.25 112.14-35.7L112.14-35.7 122.54-1.75Q122.59-1.6 122.59-1.45L122.59-1.45Q122.59-1.05 122.29-0.73 121.99-0.4 121.54-0.2 121.09 0 120.59 0L120.59 0Q120.19 0 119.84-0.2 119.49-0.4 119.39-0.85L119.39-0.85 117.04-8.55 103.24-8.55 100.94-0.85Q100.79-0.4 100.44-0.2 100.09 0 99.59 0ZM110.14-31.55L104.04-11.4 116.19-11.4 110.14-31.55ZM144.94 0L128.89 0Q128.34 0 127.86-0.33 127.39-0.65 127.39-1.3L127.39-1.3 127.39-35.35Q127.39-36 127.89-36.27 128.39-36.55 129.04-36.55L129.04-36.55Q129.64-36.55 130.16-36.27 130.69-36 130.69-35.35L130.69-35.35 130.69-3.05 144.94-3.05Q145.54-3.05 145.79-2.58 146.04-2.1 146.04-1.55L146.04-1.55Q146.04-0.95 145.79-0.48 145.54 0 144.94 0L144.94 0ZM159.54 0.3L159.54 0.3Q156.64 0.3 154.29-0.75 151.94-1.8 150.56-4.15 149.19-6.5 149.19-10.4L149.19-10.4 149.19-25.9Q149.19-29.75 150.56-32.1 151.94-34.45 154.26-35.5 156.59-36.55 159.54-36.55L159.54-36.55Q162.49-36.55 164.84-35.5 167.19-34.45 168.59-32.1 169.99-29.75 169.99-25.9L169.99-25.9 169.99-10.4Q169.99-6.5 168.59-4.15 167.19-1.8 164.84-0.75 162.49 0.3 159.54 0.3ZM159.54-2.75L159.54-2.75Q162.89-2.75 164.79-4.6 166.69-6.45 166.69-10.4L166.69-10.4 166.69-25.9Q166.69-29.8 164.79-31.65 162.89-33.5 159.54-33.5L159.54-33.5Q156.19-33.5 154.34-31.65 152.49-29.8 152.49-25.9L152.49-25.9 152.49-10.4Q152.49-6.45 154.34-4.6 156.19-2.75 159.54-2.75ZM187.18 0.3L187.18 0.3Q184.28 0.3 181.93-0.75 179.58-1.8 178.21-4.15 176.83-6.5 176.83-10.4L176.83-10.4 176.83-25.9Q176.83-29.75 178.21-32.1 179.58-34.45 181.91-35.5 184.23-36.55 187.18-36.55L187.18-36.55Q190.13-36.55 192.48-35.5 194.83-34.45 196.23-32.1 197.63-29.75 197.63-25.9L197.63-25.9 197.63-10.4Q197.63-6.5 196.23-4.15 194.83-1.8 192.48-0.75 190.13 0.3 187.18 0.3ZM187.18-2.75L187.18-2.75Q190.53-2.75 192.43-4.6 194.33-6.45 194.33-10.4L194.33-10.4 194.33-25.9Q194.33-29.8 192.43-31.65 190.53-33.5 187.18-33.5L187.18-33.5Q183.83-33.5 181.98-31.65 180.13-29.8 180.13-25.9L180.13-25.9 180.13-10.4Q180.13-6.45 181.98-4.6 183.83-2.75 187.18-2.75ZM222.43 0L203.03 0Q202.48 0 202.16-0.33 201.83-0.65 201.83-1.15L201.83-1.15Q201.83-1.7 202.13-2.3L202.13-2.3 218.78-33.5 203.68-33.5Q203.08-33.5 202.76-33.98 202.43-34.45 202.43-35.05L202.43-35.05Q202.43-35.6 202.73-36.08 203.03-36.55 203.68-36.55L203.68-36.55 221.83-36.55Q222.48-36.55 222.78-36.25 223.08-35.95 223.08-35.5L223.08-35.5Q223.08-34.9 222.68-34.2L222.68-34.2 206.08-3.05 222.43-3.05Q223.08-3.05 223.38-2.58 223.68-2.1 223.68-1.55L223.68-1.55Q223.68-0.95 223.38-0.48 223.08 0 222.43 0L222.43 0ZM227.68 0L227.68 0Q227.28 0 226.83-0.18 226.38-0.35 226.08-0.68 225.78-1 225.78-1.4L225.78-1.4Q225.78-1.6 225.83-1.75L225.83-1.75 236.28-35.7Q236.48-36.3 237.03-36.58 237.58-36.85 238.23-36.85L238.23-36.85Q238.93-36.85 239.5-36.55 240.08-36.25 240.23-35.7L240.23-35.7 250.63-1.75Q250.68-1.6 250.68-1.45L250.68-1.45Q250.68-1.05 250.38-0.73 250.08-0.4 249.63-0.2 249.18 0 248.68 0L248.68 0Q248.28 0 247.93-0.2 247.58-0.4 247.48-0.85L247.48-0.85 245.13-8.55 231.33-8.55 229.03-0.85Q228.88-0.4 228.53-0.2 228.18 0 227.68 0ZM238.23-31.55L232.13-11.4 244.28-11.4 238.23-31.55Z" opacity="1" transform="matrix(1,0,0,1,0,0)" fill="#7e68e3" class="wordmark-text-0" data-fill-palette-color="primary" id="text-0"></path></svg></g></svg></g><g transform="matrix(1,0,0,1,0,77.62790281255815)"><svg viewBox="0 0 232.20979199999996 17.555035232353735" height="17.555035232353735" width="232.20979199999996"><g transform="matrix(1,0,0,1,0,0)"><svg width="232.20979199999996" viewBox="5.05 -34.45 463.55 35.050000000000004" height="17.555035232353735" data-palette-color="#a393eb"><path d="M8.95 0L5.05 0 5.05-34.1 8.95-34.1 8.95 0ZM37.25 0L33.85 0 33.35-5.25 33.35-15.5Q33.35-18.73 31.97-20.14 30.6-21.55 27.85-21.55L27.85-21.55Q26.3-21.55 25.04-21.1 23.77-20.65 23.04-19.71 22.3-18.78 22.3-17.3L22.3-17.3 17.95-17.3Q17.95-19.9 19.22-21.49 20.5-23.08 22.73-23.79 24.97-24.5 27.85-24.5L27.85-24.5Q30.6-24.5 32.72-23.58 34.85-22.65 36.05-20.64 37.25-18.63 37.25-15.4L37.25-15.4 37.25 0ZM25.7 0.6L25.7 0.6Q22.75 0.6 20.82-0.45 18.9-1.5 17.95-3.18 17-4.85 17-6.7L17-6.7Q17-9.13 18.21-10.65 19.42-12.18 21.52-12.89 23.62-13.6 26.25-13.6L26.25-13.6Q28.12-13.6 30.01-13.23 31.9-12.85 33.7-12.2L33.7-12.2 33.7-9.75Q32.2-10.35 30.31-10.7 28.42-11.05 26.85-11.05L26.85-11.05Q24.45-11.05 22.8-10.06 21.15-9.08 21.15-6.7L21.15-6.7Q21.15-4.95 22.41-3.7 23.67-2.45 26.45-2.45L26.45-2.45Q28.4-2.45 29.96-3.36 31.52-4.28 32.44-5.65 33.35-7.03 33.35-8.4L33.35-8.4 34.3-8.4Q34.3-6 33.26-3.95 32.22-1.9 30.3-0.65 28.37 0.6 25.7 0.6ZM63.64 0L59.74 0 59.74-27.6Q59.74-29.98 60.66-31.49 61.57-33 63.11-33.73 64.64-34.45 66.54-34.45L66.54-34.45Q67.57-34.45 68.63-34.3 69.69-34.15 70.74-33.85L70.74-33.85 69.99-30.75Q69.24-31.05 68.51-31.2 67.77-31.35 67.09-31.35L67.09-31.35Q66.29-31.35 65.49-31.05 64.69-30.75 64.17-29.93 63.64-29.1 63.64-27.55L63.64-27.55 63.64 0ZM68.59-21.2L55.84-21.2 55.84-23.9 68.59-23.9 68.59-21.2ZM77.77-29.55L77.77-29.55Q76.57-29.55 75.87-30.24 75.17-30.93 75.17-32.05L75.17-32.05Q75.17-33.15 75.87-33.8 76.57-34.45 77.77-34.45L77.77-34.45Q78.97-34.45 79.67-33.8 80.37-33.15 80.37-32.05L80.37-32.05Q80.37-30.93 79.67-30.24 78.97-29.55 77.77-29.55ZM79.72 0L75.82 0 75.82-23.95 79.72-23.95 79.72 0ZM98.76 0.6L98.76 0.6Q95.66 0.6 93.23-0.99 90.79-2.58 89.38-5.4 87.96-8.22 87.96-11.9L87.96-11.9Q87.96-15.83 89.36-18.65 90.76-21.48 93.2-22.99 95.64-24.5 98.76-24.5L98.76-24.5Q101.49-24.5 103.41-23.4 105.34-22.3 106.51-20.43 107.69-18.55 108.15-16.19 108.61-13.83 108.41-11.3L108.41-11.3 91.11-11.3 91.11-13.7 105.84-13.7 104.69-12.95Q104.76-14.43 104.53-15.9 104.29-17.38 103.64-18.61 102.99-19.85 101.81-20.6 100.64-21.35 98.81-21.35L98.81-21.35Q96.51-21.35 94.96-20.18 93.41-19 92.64-17.09 91.86-15.18 91.86-12.95L91.86-12.95 91.86-11.35Q91.86-8.85 92.63-6.88 93.39-4.9 94.91-3.75 96.44-2.6 98.76-2.6L98.76-2.6Q101.09-2.6 102.59-3.73 104.09-4.85 104.41-7.05L104.41-7.05 108.46-7.05Q108.09-4.67 106.76-2.96 105.44-1.25 103.39-0.33 101.34 0.6 98.76 0.6ZM124.74 0.6L124.74 0.6Q121.26 0.6 118.94-0.39 116.61-1.38 115.41-3.11 114.21-4.85 114.14-7.1L114.14-7.1 117.89-7.1Q118.01-4.83 119.72-3.69 121.44-2.55 124.39-2.55L124.39-2.55Q125.94-2.55 127.24-3.05 128.54-3.55 129.31-4.42 130.09-5.3 130.09-6.4L130.09-6.4Q130.09-7.8 129.06-8.6 128.04-9.4 125.79-10L125.79-10 121.14-11.5Q118.11-12.45 116.5-14.11 114.89-15.78 114.89-18.1L114.89-18.1Q114.89-21 117.44-22.75 119.99-24.5 124.14-24.5L124.14-24.5Q128.54-24.5 130.96-22.7 133.39-20.9 133.49-18.2L133.49-18.2 129.64-18.2Q129.41-19.78 128.04-20.59 126.66-21.4 124.14-21.4L124.14-21.4Q121.71-21.4 120.35-20.31 118.99-19.23 118.99-17.9L118.99-17.9Q118.99-15.43 123.24-14.25L123.24-14.25 127.99-12.65Q131.06-11.73 132.7-10.23 134.34-8.72 134.34-6.4L134.34-6.4Q134.34-4.6 133.16-3 131.99-1.4 129.84-0.4 127.69 0.6 124.74 0.6ZM149.76 0.6L149.76 0.6Q147.81 0.6 146.26-0.15 144.71-0.9 143.81-2.4 142.91-3.9 142.91-6.15L142.91-6.15 142.91-30.55 146.76-30.55 146.76-6.25Q146.76-2.55 150.21-2.55L150.21-2.55Q151.23-2.55 152.2-2.78 153.16-3 154.36-3.45L154.36-3.45 154.91-0.65Q153.63-0.1 152.37 0.25 151.11 0.6 149.76 0.6ZM154.31-21.2L139.06-21.2 139.06-23.9 154.31-23.9 154.31-21.2ZM179.41 0L176.01 0 175.51-5.25 175.51-15.5Q175.51-18.73 174.13-20.14 172.76-21.55 170.01-21.55L170.01-21.55Q168.46-21.55 167.19-21.1 165.93-20.65 165.19-19.71 164.46-18.78 164.46-17.3L164.46-17.3 160.11-17.3Q160.11-19.9 161.38-21.49 162.66-23.08 164.89-23.79 167.13-24.5 170.01-24.5L170.01-24.5Q172.76-24.5 174.88-23.58 177.01-22.65 178.21-20.64 179.41-18.63 179.41-15.4L179.41-15.4 179.41 0ZM167.86 0.6L167.86 0.6Q164.91 0.6 162.98-0.45 161.06-1.5 160.11-3.18 159.16-4.85 159.16-6.7L159.16-6.7Q159.16-9.13 160.37-10.65 161.58-12.18 163.68-12.89 165.78-13.6 168.41-13.6L168.41-13.6Q170.28-13.6 172.17-13.23 174.06-12.85 175.86-12.2L175.86-12.2 175.86-9.75Q174.36-10.35 172.47-10.7 170.58-11.05 169.01-11.05L169.01-11.05Q166.61-11.05 164.96-10.06 163.31-9.08 163.31-6.7L163.31-6.7Q163.31-4.95 164.57-3.7 165.83-2.45 168.61-2.45L168.61-2.45Q170.56-2.45 172.12-3.36 173.68-4.28 174.59-5.65 175.51-7.03 175.51-8.4L175.51-8.4 176.46-8.4Q176.46-6 175.42-3.95 174.38-1.9 172.46-0.65 170.53 0.6 167.86 0.6ZM208.9 0.6L208.9 0.6Q205.8 0.6 203.36-0.99 200.93-2.58 199.51-5.4 198.1-8.22 198.1-11.9L198.1-11.9Q198.1-15.83 199.5-18.65 200.9-21.48 203.34-22.99 205.78-24.5 208.9-24.5L208.9-24.5Q211.63-24.5 213.55-23.4 215.48-22.3 216.65-20.43 217.83-18.55 218.29-16.19 218.75-13.83 218.55-11.3L218.55-11.3 201.25-11.3 201.25-13.7 215.98-13.7 214.83-12.95Q214.9-14.43 214.66-15.9 214.43-17.38 213.78-18.61 213.13-19.85 211.95-20.6 210.78-21.35 208.95-21.35L208.95-21.35Q206.65-21.35 205.1-20.18 203.55-19 202.78-17.09 202-15.18 202-12.95L202-12.95 202-11.35Q202-8.85 202.76-6.88 203.53-4.9 205.05-3.75 206.58-2.6 208.9-2.6L208.9-2.6Q211.23-2.6 212.73-3.73 214.23-4.85 214.55-7.05L214.55-7.05 218.6-7.05Q218.23-4.67 216.9-2.96 215.58-1.25 213.53-0.33 211.48 0.6 208.9 0.6ZM234.87 0.6L234.87 0.6Q231.4 0.6 229.07-0.39 226.75-1.38 225.55-3.11 224.35-4.85 224.27-7.1L224.27-7.1 228.02-7.1Q228.15-4.83 229.86-3.69 231.57-2.55 234.52-2.55L234.52-2.55Q236.07-2.55 237.37-3.05 238.67-3.55 239.45-4.42 240.22-5.3 240.22-6.4L240.22-6.4Q240.22-7.8 239.2-8.6 238.17-9.4 235.92-10L235.92-10 231.27-11.5Q228.25-12.45 226.64-14.11 225.02-15.78 225.02-18.1L225.02-18.1Q225.02-21 227.57-22.75 230.12-24.5 234.27-24.5L234.27-24.5Q238.67-24.5 241.1-22.7 243.52-20.9 243.62-18.2L243.62-18.2 239.77-18.2Q239.55-19.78 238.17-20.59 236.8-21.4 234.27-21.4L234.27-21.4Q231.85-21.4 230.49-20.31 229.12-19.23 229.12-17.9L229.12-17.9Q229.12-15.43 233.37-14.25L233.37-14.25 238.12-12.65Q241.2-11.73 242.84-10.23 244.47-8.72 244.47-6.4L244.47-6.4Q244.47-4.6 243.3-3 242.12-1.4 239.97-0.4 237.82 0.6 234.87 0.6ZM259.9 0.6L259.9 0.6Q257.95 0.6 256.4-0.15 254.85-0.9 253.95-2.4 253.05-3.9 253.05-6.15L253.05-6.15 253.05-30.55 256.9-30.55 256.9-6.25Q256.9-2.55 260.35-2.55L260.35-2.55Q261.37-2.55 262.33-2.78 263.3-3 264.5-3.45L264.5-3.45 265.05-0.65Q263.77-0.1 262.51 0.25 261.25 0.6 259.9 0.6ZM264.45-21.2L249.2-21.2 249.2-23.9 264.45-23.9 264.45-21.2ZM289.54 0L286.14 0 285.64-5.25 285.64-15.5Q285.64-18.73 284.27-20.14 282.89-21.55 280.14-21.55L280.14-21.55Q278.59-21.55 277.33-21.1 276.07-20.65 275.33-19.71 274.59-18.78 274.59-17.3L274.59-17.3 270.24-17.3Q270.24-19.9 271.52-21.49 272.79-23.08 275.03-23.79 277.27-24.5 280.14-24.5L280.14-24.5Q282.89-24.5 285.02-23.58 287.14-22.65 288.34-20.64 289.54-18.63 289.54-15.4L289.54-15.4 289.54 0ZM277.99 0.6L277.99 0.6Q275.04 0.6 273.12-0.45 271.19-1.5 270.24-3.18 269.29-4.85 269.29-6.7L269.29-6.7Q269.29-9.13 270.51-10.65 271.72-12.18 273.82-12.89 275.92-13.6 278.54-13.6L278.54-13.6Q280.42-13.6 282.31-13.23 284.19-12.85 285.99-12.2L285.99-12.2 285.99-9.75Q284.49-10.35 282.61-10.7 280.72-11.05 279.14-11.05L279.14-11.05Q276.74-11.05 275.09-10.06 273.44-9.08 273.44-6.7L273.44-6.7Q273.44-4.95 274.71-3.7 275.97-2.45 278.74-2.45L278.74-2.45Q280.69-2.45 282.26-3.36 283.82-4.28 284.73-5.65 285.64-7.03 285.64-8.4L285.64-8.4 286.59-8.4Q286.59-6 285.56-3.95 284.52-1.9 282.59-0.65 280.67 0.6 277.99 0.6ZM319.34 0.6L319.34 0.6Q315.86 0.6 313.54-0.39 311.21-1.38 310.01-3.11 308.81-4.85 308.74-7.1L308.74-7.1 312.49-7.1Q312.61-4.83 314.33-3.69 316.04-2.55 318.99-2.55L318.99-2.55Q320.54-2.55 321.84-3.05 323.14-3.55 323.91-4.42 324.69-5.3 324.69-6.4L324.69-6.4Q324.69-7.8 323.66-8.6 322.64-9.4 320.39-10L320.39-10 315.74-11.5Q312.71-12.45 311.1-14.11 309.49-15.78 309.49-18.1L309.49-18.1Q309.49-21 312.04-22.75 314.59-24.5 318.74-24.5L318.74-24.5Q323.14-24.5 325.56-22.7 327.99-20.9 328.09-18.2L328.09-18.2 324.24-18.2Q324.01-19.78 322.64-20.59 321.26-21.4 318.74-21.4L318.74-21.4Q316.31-21.4 314.95-20.31 313.59-19.23 313.59-17.9L313.59-17.9Q313.59-15.43 317.84-14.25L317.84-14.25 322.59-12.65Q325.66-11.73 327.3-10.23 328.94-8.72 328.94-6.4L328.94-6.4Q328.94-4.6 327.76-3 326.59-1.4 324.44-0.4 322.29 0.6 319.34 0.6ZM345.31 0.6L345.31 0.6Q342.21 0.6 339.77-0.99 337.34-2.58 335.92-5.4 334.51-8.22 334.51-11.9L334.51-11.9Q334.51-15.83 335.91-18.65 337.31-21.48 339.75-22.99 342.19-24.5 345.31-24.5L345.31-24.5Q348.04-24.5 349.96-23.4 351.89-22.3 353.06-20.43 354.24-18.55 354.7-16.19 355.16-13.83 354.96-11.3L354.96-11.3 337.66-11.3 337.66-13.7 352.39-13.7 351.24-12.95Q351.31-14.43 351.07-15.9 350.84-17.38 350.19-18.61 349.54-19.85 348.36-20.6 347.19-21.35 345.36-21.35L345.36-21.35Q343.06-21.35 341.51-20.18 339.96-19 339.19-17.09 338.41-15.18 338.41-12.95L338.41-12.95 338.41-11.35Q338.41-8.85 339.17-6.88 339.94-4.9 341.46-3.75 342.99-2.6 345.31-2.6L345.31-2.6Q347.64-2.6 349.14-3.73 350.64-4.85 350.96-7.05L350.96-7.05 355.01-7.05Q354.64-4.67 353.31-2.96 351.99-1.25 349.94-0.33 347.89 0.6 345.31 0.6ZM366.58 0L362.68 0 362.68-23.95 366.58-23.95 366.58 0ZM366.58-10.8L365.38-10.8Q365.38-15.35 366.26-18.36 367.13-21.38 368.82-22.86 370.51-24.35 372.93-24.35L372.93-24.35Q373.73-24.35 374.4-24.24 375.06-24.13 375.73-23.9L375.73-23.9 375.48-20.05Q374.78-20.28 373.96-20.44 373.13-20.6 372.48-20.6L372.48-20.6Q370.36-20.6 369.06-19.39 367.76-18.18 367.17-15.98 366.58-13.78 366.58-10.8L366.58-10.8ZM386.16 0L376.61-23.9 381.06-23.9 388.56-3.35 388.01-3.35 395.51-23.9 399.96-23.9 390.41 0 386.16 0ZM408.08-29.55L408.08-29.55Q406.88-29.55 406.18-30.24 405.48-30.93 405.48-32.05L405.48-32.05Q405.48-33.15 406.18-33.8 406.88-34.45 408.08-34.45L408.08-34.45Q409.28-34.45 409.98-33.8 410.68-33.15 410.68-32.05L410.68-32.05Q410.68-30.93 409.98-30.24 409.28-29.55 408.08-29.55ZM410.03 0L406.13 0 406.13-23.95 410.03-23.95 410.03 0ZM429.33 0.6L429.33 0.6Q426.43 0.6 424-0.96 421.58-2.53 420.13-5.36 418.68-8.2 418.68-12.05L418.68-12.05Q418.68-15.88 420.1-18.68 421.53-21.48 423.89-22.99 426.25-24.5 429.08-24.5L429.08-24.5Q431.7-24.5 433.69-23.23 435.68-21.95 436.78-19.55 437.88-17.15 437.88-13.75L437.88-13.75 436.38-13.75Q436.38-16.13 435.44-17.75 434.5-19.38 433-20.21 431.5-21.05 429.78-21.05L429.78-21.05Q427.83-21.05 426.21-19.96 424.6-18.88 423.64-16.86 422.68-14.85 422.68-12.05L422.68-12.05Q422.68-9.2 423.64-7.15 424.6-5.1 426.21-4 427.83-2.9 429.78-2.9L429.78-2.9Q431.4-2.9 432.91-3.75 434.43-4.6 435.4-6.24 436.38-7.88 436.38-10.2L436.38-10.2 437.88-10.2Q437.88-6.73 436.74-4.31 435.6-1.9 433.66-0.65 431.73 0.6 429.33 0.6ZM440.28 0L437.03 0 436.38-5.6 436.38-34.1 440.28-34.1 440.28 0ZM468.6 0L465.2 0 464.7-5.25 464.7-15.5Q464.7-18.73 463.32-20.14 461.95-21.55 459.2-21.55L459.2-21.55Q457.65-21.55 456.39-21.1 455.12-20.65 454.39-19.71 453.65-18.78 453.65-17.3L453.65-17.3 449.3-17.3Q449.3-19.9 450.57-21.49 451.85-23.08 454.09-23.79 456.32-24.5 459.2-24.5L459.2-24.5Q461.95-24.5 464.07-23.58 466.2-22.65 467.4-20.64 468.6-18.63 468.6-15.4L468.6-15.4 468.6 0ZM457.05 0.6L457.05 0.6Q454.1 0.6 452.17-0.45 450.25-1.5 449.3-3.18 448.35-4.85 448.35-6.7L448.35-6.7Q448.35-9.13 449.56-10.65 450.77-12.18 452.87-12.89 454.97-13.6 457.6-13.6L457.6-13.6Q459.47-13.6 461.36-13.23 463.25-12.85 465.05-12.2L465.05-12.2 465.05-9.75Q463.55-10.35 461.66-10.7 459.77-11.05 458.2-11.05L458.2-11.05Q455.8-11.05 454.15-10.06 452.5-9.08 452.5-6.7L452.5-6.7Q452.5-4.95 453.76-3.7 455.02-2.45 457.8-2.45L457.8-2.45Q459.75-2.45 461.31-3.36 462.87-4.28 463.79-5.65 464.7-7.03 464.7-8.4L464.7-8.4 465.65-8.4Q465.65-6 464.61-3.95 463.57-1.9 461.65-0.65 459.72 0.6 457.05 0.6Z" opacity="1" transform="matrix(1,0,0,1,0,0)" fill="#a393eb" class="slogan-text-1" data-fill-palette-color="secondary" id="text-1"></path></svg></g></svg></g></svg></g></svg></g><g><svg viewBox="0 0 245.65351679999995 245.1438622008298" height="245.1438622008298" width="245.65351679999995"><g><svg xmlns="http://www.w3.org/2000/svg" xmlns:xlink="http://www.w3.org/1999/xlink" version="1.1" x="0" y="0" viewBox="2 2 96.40000000000003 96.20000000000003" enable-background="new 0 0 100 100" xml:space="preserve" height="245.1438622008298" width="245.65351679999995" class="icon-icon-0" data-fill-palette-color="accent" id="icon-0"><g fill="#7e68e3" data-fill-palette-color="accent"><path d="M95.8 43.8h-6c-0.1 0-0.2-0.1-0.2-0.2v-6c0-1.2-1-2.2-2.2-2.2h-6c-0.1 0-0.2-0.1-0.2-0.2v-6c0-1.2-1-2.2-2.2-2.2h-6c-0.1 0-0.2-0.1-0.2-0.2v-6c0-1.2-1-2.2-2.2-2.2h-6c-0.1 0-0.2-0.1-0.2-0.2v-6c0-1.2-1-2.2-2.2-2.2h-6c-0.1 0-0.2-0.1-0.2-0.2v-6C56.2 3 55.2 2 54 2h-8c-1.2 0-2.2 1-2.2 2.2v6c0 0.1-0.1 0.2-0.2 0.2h-6c-1.2 0-2.2 1-2.2 2.2v6c0 0.1-0.1 0.2-0.2 0.2h-6c-1.2 0-2.2 1-2.2 2.2v6c0 0.1-0.1 0.2-0.2 0.2h-6c-1.2 0-2.2 1-2.2 2.2v6c0 0.1-0.1 0.2-0.2 0.2h-6c-1.2 0-2.2 1-2.2 2.2v6c0 0.1-0.1 0.2-0.2 0.2h-6C3 43.8 2 44.8 2 46v8c0 1.2 1 2.2 2.2 2.2h6c0.1 0 0.2 0.1 0.2 0.2v6c0 1.2 1 2.2 2.2 2.2h6c0.1 0 0.2 0.1 0.2 0.2v6c0 1.2 1 2.2 2.2 2.2h6c0.1 0 0.2 0.1 0.2 0.2v6c0 1.2 1 2.2 2.2 2.2h6c0.1 0 0.2 0.1 0.2 0.2v6c0 1.2 1 2.2 2.2 2.2h6c0.1 0 0.2 0.1 0.2 0.2v6c0 1.2 1 2.2 2.2 2.2h8c1.2 0 2.2-1 2.2-2.2v-6c0-0.1 0.1-0.2 0.2-0.2h6c1.2 0 2.2-1 2.2-2.2v-6c0-0.1 0.1-0.2 0.2-0.2h6c1.2 0 2.2-1 2.2-2.2v-6c0-0.1 0.1-0.2 0.2-0.2h6c1.2 0 2.2-1 2.2-2.2v-6c0-0.1 0.1-0.2 0.2-0.2h6c1.2 0 2.2-1 2.2-2.2v-6c0-0.1 0.1-0.2 0.2-0.2h6c1.2 0 2.2-1 2.2-2.2v-8C98 44.8 97 43.8 95.8 43.8zM96 54c0 0.1-0.1 0.2-0.2 0.2h-6c-1.2 0-2.2 1-2.2 2.2v6c0 0.1-0.1 0.2-0.2 0.2h-6c-1.2 0-2.2 1-2.2 2.2v6c0 0.1-0.1 0.2-0.2 0.2h-6c-1.2 0-2.2 1-2.2 2.2v6c0 0.1-0.1 0.2-0.2 0.2h-6c-1.2 0-2.2 1-2.2 2.2v6c0 0.1-0.1 0.2-0.2 0.2h-6c-1.2 0-2.2 1-2.2 2.2v6c0 0.1-0.1 0.2-0.2 0.2h-8c-0.1 0-0.2-0.1-0.2-0.2v-6c0-1.2-1-2.2-2.2-2.2h-6c-0.1 0-0.2-0.1-0.2-0.2v-6c0-1.2-1-2.2-2.2-2.2h-6c-0.1 0-0.2-0.1-0.2-0.2v-6c0-1.2-1-2.2-2.2-2.2h-6c-0.1 0-0.2-0.1-0.2-0.2v-6c0-1.2-1-2.2-2.2-2.2h-6c-0.1 0-0.2-0.1-0.2-0.2v-6c0-1.2-1-2.2-2.2-2.2h-6C4.1 54.2 4 54.1 4 54v-8c0-0.1 0.1-0.2 0.2-0.2h6c1.2 0 2.2-1 2.2-2.2v-6c0-0.1 0.1-0.2 0.2-0.2h6c1.2 0 2.2-1 2.2-2.2v-6c0-0.1 0.1-0.2 0.2-0.2h6c1.2 0 2.2-1 2.2-2.2v-6c0-0.1 0.1-0.2 0.2-0.2h6c1.2 0 2.2-1 2.2-2.2v-6c0-0.1 0.1-0.2 0.2-0.2h6c1.2 0 2.2-1 2.2-2.2v-6C45.8 4.1 45.9 4 46 4h8c0.1 0 0.2 0.1 0.2 0.2v6c0 1.2 1 2.2 2.2 2.2h6c0.1 0 0.2 0.1 0.2 0.2v6c0 1.2 1 2.2 2.2 2.2h6c0.1 0 0.2 0.1 0.2 0.2v6c0 1.2 1 2.2 2.2 2.2h6c0.1 0 0.2 0.1 0.2 0.2v6c0 1.2 1 2.2 2.2 2.2h6c0.1 0 0.2 0.1 0.2 0.2v6c0 1.2 1 2.2 2.2 2.2h6c0.1 0 0.2 0.1 0.2 0.2V54z" fill="#7e68e3" data-fill-palette-color="accent"></path><path d="M51.5 15.9c-0.3-0.2-0.8-0.2-1.1 0-5.8 3.9-11.9 9-17.6 14.7C27.1 36.3 22 42.4 18.1 48.2c-0.2 0.3-0.2 0.8 0 1.1 3.9 5.8 9 11.9 14.7 17.6 5.7 5.7 11.8 10.8 17.6 14.7 0.2 0.1 0.4 0.2 0.6 0.2s0.4-0.1 0.6-0.2c1.4-0.9 2.8-1.9 4.2-3 0.4-0.3 0.5-1 0.2-1.4-0.3-0.4-1-0.5-1.4-0.2-1.2 0.9-2.4 1.8-3.6 2.6-5.5-3.8-11.3-8.7-16.8-14.1-5.5-5.5-10.3-11.2-14.1-16.8 3.8-5.5 8.7-11.3 14.1-16.8 5.5-5.5 11.2-10.3 16.8-14.1 1.2 0.9 2.6 1.8 3.9 2.8 0.4 0.3 1.1 0.2 1.4-0.2 0.3-0.4 0.2-1.1-0.2-1.4C54.5 18 53 16.9 51.5 15.9z" fill="#7e68e3" data-fill-palette-color="accent"></path><path d="M67.8 32.2c0.2 0.2 0.4 0.3 0.7 0.3 0.3 0 0.5-0.1 0.7-0.3 0.4-0.4 0.4-1 0-1.4 0 0-0.1-0.1-0.1-0.1-1.3-1.3-2.6-2.6-4.1-3.9-0.4-0.4-1-0.3-1.4 0.1-0.4 0.4-0.3 1 0.1 1.4C65.2 29.5 66.5 30.8 67.8 32.2 67.8 32.1 67.8 32.1 67.8 32.2z" fill="#7e68e3" data-fill-palette-color="accent"></path><path d="M73.9 35.7c-0.4-0.4-1-0.4-1.4-0.1-0.4 0.4-0.4 1-0.1 1.4 3.6 4 6.7 7.9 9.4 11.8-3.8 5.5-8.7 11.3-14.1 16.8-0.4 0.4-0.4 1 0 1.4 0.2 0.2 0.5 0.3 0.7 0.3s0.5-0.1 0.7-0.3c5.7-5.7 10.8-11.8 14.7-17.6 0.2-0.3 0.2-0.8 0-1.1C81.1 44.1 77.8 39.9 73.9 35.7z" fill="#7e68e3" data-fill-palette-color="accent"></path></g></svg></g></svg></g></svg></g><defs></defs></svg><rect width="395.52" height="147.52956993128228" fill="none" stroke="none" visibility="hidden"></rect></g></svg></g></svg>